<?xml version="1.0" encoding="UTF-8"?>
<svg id="Laag_1" data-name="Laag 1" xmlns="http://www.w3.org/2000/svg" viewBox="0 0 532.18 518.67">
  <defs>
    <style>
      .cls-1 {
        fill: #f1c40f;
      }

      .cls-2, .cls-3, .cls-4, .cls-5 {
        fill: none;
      }

      .cls-2, .cls-3, .cls-4, .cls-5, .cls-6 {
        stroke: #000;
        stroke-miterlimit: 10;
      }

      .cls-2, .cls-4 {
        stroke-linecap: round;
      }

      .cls-2, .cls-5 {
        stroke-width: 4px;
      }

      .cls-3, .cls-4, .cls-6 {
        stroke-width: 15px;
      }

      .cls-6 {
        fill: #fff;
      }
    </style>
  </defs>
  <g id="Laag_4" data-name="Laag 4">
    <rect class="cls-1" x="20.18" width="512" height="512"/>
  </g>
  <path class="cls-6" d="M221.04,430.61c1.32,7.72,12.14,25.87,21.54,24.73,113.09-13.79,127.74-198.87,127.6-221.32l.11-8.94s16.35-9.22,24.74-20.01c7.25-9.33,8.41-23.19,6.42-33.15-.06-.3-.13-.64-.22-1.04-1.07-4.7-5.29-19.53-18.28-26.42-7.52-3.99-15.26-3.89-21.27-3.8-5.68.08-5.83.95-7.87.65-14.58-2.13-7.92-46.44-33.17-72.27-2.4-2.45-18.81-18.75-39.44-16.05-17.09,2.24-27.43,16.25-30.5,20.41-9.37,12.71-10.57,25.68-12.15,45.78-1.01,12.79-1.28,30.94,2.29,52.74"/>
  <path class="cls-6" d="M230.36,444.77c-5.13-4.07-8.62-9.86-9.82-16.29l-17.8-95.78c-.76-3.79-4.31-6.35-8.14-5.89l-20.76,2.5c-4.54.55-8.49-3.12-8.28-7.69l1.83-40.42c.2-4.43-3.51-8.04-7.93-7.72l-27.75,2.01c-4.43.32-8.15-3.31-7.93-7.75l6.61-133.81c.18-3.62,2.95-6.58,6.55-6.99l47.11-5.44c4.4-.51,8.26,2.93,8.26,7.36v47.91c0,4.76,4.42,8.28,9.05,7.22l49.74-11.35c5.25-1.2,9.99,3.43,8.9,8.71l-14.3,69.56c-1.01,4.9,3.03,9.37,8.01,8.86l25.8-2.65c5.18-.53,9.28,4.31,7.9,9.34l-45.18,179.55c-.81,3.2-4.64,4.5-7.23,2.45l-4.63-3.67Z"/>
  <line class="cls-4" x1="357.09" y1="140.99" x2="303.34" y2="154.17"/>
  <path class="cls-5" d="M322.04,143.52c-9.06-36.81-11.68-44.67-2.5-46.61,7.81-1.65,10.34,8.88,19.24,41.46"/>
  <path class="cls-5" d="M301.58,149.64c-9.06-36.81-11.68-44.67-2.5-46.61,7.81-1.65,10.34,8.88,19.24,41.46"/>
  <line class="cls-2" x1="303.78" y1="124.05" x2="310.05" y2="146.87"/>
  <line class="cls-2" x1="324.77" y1="118.95" x2="331.04" y2="141.76"/>
  <path class="cls-3" d="M320.64,179.73c16.28-5.27,31.87-7.34,48.38-9.4,8.85-1.11-.82,17.64-1.15,18.34-4.92,10.7-17.4,16.14-29.81,12.38-11.47-3.48-25.6-18.68-17.43-21.32Z"/>
  <path d="M128.06,130.55c-1.28.79-2.62,1.46-4.03,1.97.07.28.14.57.18.87.07.51.1,1.02.12,1.53,1.54-1.63,3.1-3.24,4.66-4.84-.32.17-.63.33-.94.47Z"/>
  <path d="M252.68,422.95c-.16-.28-.3-.58-.41-.9-1.78-5.12-.63-9.95,1.32-14.6-9.52,14.04-18.02,28.79-22.54,44.9-1.35,4.82,4.84,8.39,8.36,4.86,3.57-3.57,7.14-7.14,10.7-10.71-1.29-.86-2.23-2.3-2.3-4.08-.17-4.34.53-9.19,2.41-13.35.61-2.13,1.41-4.18,2.46-6.12Z"/>
</svg>